<svg xmlns="http://www.w3.org/2000/svg" xmlns:xlink="http://www.w3.org/1999/xlink" width="123" height="27.999" viewBox="0 0 123 27.999">
  <defs>
    <clipPath id="clip-path">
      <rect id="Rectangle_1" data-name="Rectangle 1" width="123" height="27.999" fill="none"/>
    </clipPath>
    <clipPath id="clip-path-2">
      <path id="Path_8" data-name="Path 8" d="M14.5,11.972a35.9,35.9,0,0,0,1.379-4.335l.508-1.867c.147-.541.345-1.2.964-1.357a1,1,0,0,1,.76.124,1.5,1.5,0,0,1,.561.792c.478,1.342.851,2.734,1.279,4.094a12.132,12.132,0,0,0,1.144,2.8,3.547,3.547,0,0,0,2.894,1.9,3.1,3.1,0,0,0-.616.06,3.872,3.872,0,0,0-2.318,1.953,12.878,12.878,0,0,0-1.091,2.721l-.734,2.331a9.521,9.521,0,0,1-.764,2.2,1.082,1.082,0,0,1-1.051.49c-.612-.09-.859-.694-1.009-1.22-.549-1.922-.972-3.195-1.546-5.108a6.237,6.237,0,0,0-.788-1.89.634.634,0,0,0-.478-.179.761.761,0,0,0-.511.3,5.563,5.563,0,0,0-.457.8,1.2,1.2,0,0,1-1.435.659c-.584-.267-.766-1.077-1.175-1.533a.927.927,0,0,0-.294-.233c-.466-.214-.919.315-1.176.632-.412.509-.741,1.187-1.347,1.5-.776.4-1.425-.427-1.787-1.013-.213-.345-.4-.708-.629-1.042a3.385,3.385,0,0,0-1.68-1.4,1.323,1.323,0,0,0-.293-.032,1.311,1.311,0,0,0,.292-.032A3.183,3.183,0,0,0,4.644,12.85c.447-.564.818-1.183,1.265-1.747a1.234,1.234,0,0,1,.924-.586,1.07,1.07,0,0,1,.641.314A9.375,9.375,0,0,1,8.445,12c.261.324.672.853,1.142.8.547-.06.79-.8,1.033-1.2a1.27,1.27,0,0,1,.935-.7,1.215,1.215,0,0,1,.988.628c.258.386.461,1.083.945,1.248a.6.6,0,0,0,.193.033c.416,0,.678-.488.822-.834M9.375.92A13.791,13.791,0,0,0,.024,14.711a13.8,13.8,0,0,0,9.591,12.2A13.8,13.8,0,0,0,17.392,27a21.6,21.6,0,0,1,4.057-1.018,7.95,7.95,0,0,1,4.191.869A8.34,8.34,0,0,1,27,27.712c.1.073.19.15.282.23V14.977c0-.228,0-.456,0-.683a16.213,16.213,0,0,0-.416-3.782A13.842,13.842,0,0,0,14.8.292c-.4-.036-.8-.054-1.2-.054A13.535,13.535,0,0,0,9.375.92" transform="translate(0 -0.238)" fill="none"/>
    </clipPath>
    <linearGradient id="linear-gradient" x1="-0.029" y1="0.527" x2="1" y2="0.543" gradientUnits="objectBoundingBox">
      <stop offset="0" stop-color="#114c90"/>
      <stop offset="0.31" stop-color="#0d8adb"/>
      <stop offset="0.599" stop-color="#35c1f1"/>
      <stop offset="1" stop-color="#66eb6e"/>
    </linearGradient>
  </defs>
  <g id="Group_5" data-name="Group 5" transform="translate(0)">
    <g id="Group_2" data-name="Group 2" transform="translate(0)">
      <g id="Group_1" data-name="Group 1" clip-path="url(#clip-path)">
        <path id="Path_1" data-name="Path 1" d="M261.226,16.664l7.629,10.818H262.92l-3.631-5.251A1.861,1.861,0,0,0,255.9,23.29v4.192h-4.546V0H255.9V15.753l6.453-6.946H268.7Z" transform="translate(-201.617 -0.001)" fill="#162a44"/>
        <path id="Path_2" data-name="Path 2" d="M348.438.237a3.113,3.113,0,1,1-3.112,3.15,3.11,3.11,0,0,1,3.112-3.15M345.933,9h5.048V27.671h-5.048Z" transform="translate(-276.997 -0.19)" fill="#162a44"/>
        <path id="Path_3" data-name="Path 3" d="M593.278.237a3.113,3.113,0,1,1-3.112,3.15,3.111,3.111,0,0,1,3.112-3.15M590.773,9h5.048V27.671h-5.048Z" transform="translate(-473.391 -0.19)" fill="#162a44"/>
        <path id="Path_4" data-name="Path 4" d="M391.956,21.886h3.758v4.386h-3.758v7.912c0,1.632.759,2.163,2.2,2.163a7.326,7.326,0,0,0,1.556-.152v4.175a7.49,7.49,0,0,1-2.847.455c-3.644,0-5.921-2.163-5.921-5.769V26.271h-3.378V21.886h.949a2.691,2.691,0,0,0,2.885-2.961V16.306h4.555Z" transform="translate(-307.672 -13.08)" fill="#162a44"/>
        <path id="Path_5" data-name="Path 5" d="M507.227,44.323c5.758,0,7.9,3.248,7.9,6.9v8.932c0,.96,0,2.879,0,2.879h-4.5s.033-1.476.033-2.178a6.068,6.068,0,0,1-5.352,2.694c-3.875,0-6.238-2.621-6.238-5.462,0-3.248,2.4-5.057,5.426-5.5l4.466-.664c1.033-.148,1.366-.664,1.366-1.292,0-1.292-.969-1.916-3.036-1.916l-6.626.053-.028-4.448Zm3.1,11.368v-.812l-4.1.627a2.292,2.292,0,0,0-2.251,2.288,2.131,2.131,0,0,0,2.362,2.1c2.067,0,3.986-1,3.986-4.208" transform="translate(-400.32 -35.553)" fill="#162a44"/>
        <path id="Path_6" data-name="Path 6" d="M172.547,63.18V58.774h6.34c1.072,0,1.724-.617,1.738-1.194.033-1.41-1.38-1.662-1.756-1.749l-1.888-.436c-3.21-.709-5.053-2.195-5.053-4.95,0-3.15,2.672-5.676,6.165-5.92v-.019l.471,0h6.415v4.372h-6.3a1.554,1.554,0,0,0-1.67,1.194,1.227,1.227,0,0,0,.508,1.175,2.207,2.207,0,0,0,.928.422l2.1.45c3.337.688,5.332,2.275,5.332,5.087,0,2.767-2.022,5.747-6.447,5.961v.012h-6.886Z" transform="translate(-137.909 -35.699)" fill="#162a44"/>
        <path id="Path_7" data-name="Path 7" d="M461.485,108.785a3.112,3.112,0,1,1-3.112,3.15,3.11,3.11,0,0,1,3.112-3.15" transform="translate(-367.675 -87.26)" fill="#162a44"/>
      </g>
    </g>
    <g id="Group_4" data-name="Group 4" transform="translate(0 0.047)">
      <g id="Group_3" data-name="Group 3" transform="translate(0)" clip-path="url(#clip-path-2)">
        <rect id="Rectangle_2" data-name="Rectangle 2" width="38.82" height="38.808" transform="translate(-13.755 17.336) rotate(-52.284)" fill="url(#linear-gradient)"/>
      </g>
    </g>
  </g>
</svg>
